<?xml version="1.0" encoding="utf-8"?>
<!-- Generator: Adobe Illustrator 23.0.0, SVG Export Plug-In . SVG Version: 6.00 Build 0)  -->
<svg version="1.1" id="Capa_1" xmlns="http://www.w3.org/2000/svg" xmlns:xlink="http://www.w3.org/1999/xlink" x="0px" y="0px"
	 viewBox="0 0 512 512" style="enable-background:new 0 0 512 512; width: auto; height: 100%; margin:auto;" xml:space="preserve">
<style>
	.st0{fill:#FA9E3E;}
	.st1{fill:#F0EEEE;}
	.st2{fill:#D9D4D4;}
	.st3{fill:#49B6F2;}
	.st4{fill:#68C8FC;}
	.st5{fill:#19303F;}
	.st6{fill:#78D6D1;}
	.st7{fill:#304A56;}
	.st8{fill:#3D5868;}
	.st9{fill:#2A434F;}
	.st10{fill:#FFB56B;}
	.st11{fill:#EF9245;}

	#Face{
		animation: faceAnimation infinite ease-in-out 3s;
		transform-origin: center;
	}

	@keyframes faceAnimation {
		0%{
			transform: rotateZ(0deg);
		}
		25%{
			transform: rotateZ(5deg);
		}
		75%{
			transform: rotateZ(-5deg);
		}
		100%{
			transform: rotateZ(0deg);
		}
	}	
</style>
<g id="Group_1">
	<g>
		<path class="st0" d="M201.6,267.7v90.7c0,23.2,18.8,42.1,42.1,42.1l0,0c23.2,0,42.1-18.8,42.1-42.1v-90.7H201.6z"/>
	</g>
	<path class="st1" d="M296.6,355.9H190.8c-45.7,0-82.9,37.2-82.9,82.9v65.7c0,4.1,3.4,7.5,7.5,7.5H372c4.1,0,7.5-3.4,7.5-7.5v-65.7
		C379.5,393.1,342.3,355.9,296.6,355.9z"/>
	<path class="st2" d="M296.6,355.9h-25.2c45.7,0,82.9,37.2,82.9,82.9v65.7c0,4.1-3.4,7.5-7.5,7.5H372c4.1,0,7.5-3.4,7.5-7.5v-65.7
		C379.5,393.1,342.3,355.9,296.6,355.9z"/>
	<rect x="201.6" y="363.4" class="st3" width="84.2" height="148.6"/>
	<g>
		<polygon class="st4" points="243.7,370.9 243.7,407.7 285.8,437 285.8,363.4 		"/>
		<polygon class="st4" points="201.6,437 243.7,407.7 243.7,370.9 201.6,363.4 		"/>
	</g>
	<path class="st5" d="M329.4,443.3c-4.1,0-7.5-3.4-7.5-7.5v-36.2c0-41.8-34-75.7-75.7-75.7s-75.7,34-75.7,75.7v31.1
		c0,4.1-3.4,7.5-7.5,7.5s-7.5-3.4-7.5-7.5v-31.1c0-50,40.7-90.7,90.7-90.7s90.7,40.7,90.7,90.7v36.2
		C336.9,439.9,333.5,443.3,329.4,443.3z"/>
	<path class="st6" d="M162.9,423.2c-12.1,0-22,9.9-22,22s9.9,22,22,22s22-9.9,22-22C184.9,433.1,175,423.2,162.9,423.2z"/>
	<path class="st7" d="M243.7,407.7l-22.5,15.7c5.7,5.9,13.7,9.6,22.5,9.6c8.9,0,16.8-3.7,22.5-9.6L243.7,407.7z"/>
	<g>
		<path class="st8" d="M243.7,433c-3.3,0-6.4-0.5-9.4-1.4L224,512h39.5l-10.4-80.4C250.1,432.5,247,433,243.7,433z"/>
		<path class="st8" d="M349.3,491h-3.6c-4.1,0-7.5-3.4-7.5-7.5c0-2.7,1.5-5.1,3.6-6.4v-21.5c0-6.8-5.6-12.4-12.4-12.4
			c-6.8,0-12.4,5.6-12.4,12.4v21.5c2.2,1.3,3.6,3.7,3.6,6.4c0,4.1-3.4,7.5-7.5,7.5h-3.6c-4.1,0-7.5-3.4-7.5-7.5v-27.9
			c0-15.1,12.3-27.4,27.4-27.4c15.1,0,27.4,12.3,27.4,27.4v27.9C356.8,487.7,353.4,491,349.3,491z"/>
	</g>
</g>
<g id="Face">
	<path class="st0" d="M113.5,224h49.4v56.6h-49.4c-15.6,0-28.3-12.7-28.3-28.3S97.9,224,113.5,224z"/>
	<path class="st0" d="M373.9,224h-49.4v56.6h49.4c15.6,0,28.3-12.7,28.3-28.3S389.5,224,373.9,224z"/>
	<path class="st8" d="M420.6,5.8c-6.6-7-15.4-7.7-23.1-1.8c-12.4,9.6-50.2,38.8-108.6,19.8C241.8,8.5,205,5.2,176.3,13.7
		c-27.2,8.1-46.8,27.2-58.3,56.8c-29,19.6-42.1,51-38,90.8c3.2,31.1,16.2,60.9,26.4,77.1c2.2,3.5,6.8,4.6,10.3,2.4
		c2.3-1.4,3.5-3.9,3.5-6.3h241.6c0,2.5,1.2,4.9,3.5,6.3c1.2,0.8,2.6,1.2,4,1.2c2.5,0,4.9-1.2,6.4-3.5c10.8-17.2,26-58.8,26.6-98.8
		c22.5-26.6,28.4-58.3,29.9-75.1C434.5,38.9,430,15.8,420.6,5.8z"/>
	<path class="st9" d="M420.6,5.8c-6.6-7-15.4-7.7-23.1-1.8c-1.9,1.5-4.4,3.4-7.4,5.5c7.4,11.3,10.8,32.1,8.7,55
		c-1.5,16.8-7.5,48.5-29.9,75.1c-0.6,37.2-13.8,75.8-24.3,94.8h17.2c0,2.5,1.2,4.9,3.5,6.3c1.2,0.8,2.6,1.2,4,1.2
		c2.5,0,4.9-1.2,6.4-3.5c10.8-17.2,26-58.8,26.6-98.8c22.5-26.6,28.4-58.3,29.9-75.1C434.5,38.9,430,15.8,420.6,5.8z"/>
	<path class="st10" d="M355.8,166.1v63.3c0,62-49.8,113.1-111.7,113.3C182,343,131.6,292.7,131.6,230.7v-43.8c0-0.9,0.5-1.7,1.3-2
		c27.1-12.4,36.2-44.5,38.6-67.6c0.5-5,0.7-9.5,0.7-13.3c0-2.1,2.6-3,3.9-1.5c3.2,3.5,8.1,8.8,14.5,14.8
		c29.6,27.8,91.5,72.7,162.2,46.7C354.3,163.5,355.8,164.6,355.8,166.1z"/>
	<path class="st5" d="M243.7,288.5c-13.5,0-26.1-6.6-33.8-17.7c-2.4-3.4-1.5-8.1,1.9-10.4c3.4-2.4,8.1-1.5,10.4,1.9
		c4.9,7.1,12.9,11.3,21.5,11.3s16.6-4.2,21.5-11.3c2.4-3.4,7-4.3,10.4-1.9c3.4,2.4,4.3,7,1.9,10.4
		C269.8,281.9,257.2,288.5,243.7,288.5z"/>
	<path class="st11" d="M332.5,242.3c0,53.6-41.9,97.4-94.8,100.3h0c1,0.1,2,0.1,3,0.1c0,0,0,0,0,0c1,0,2,0,3,0l0,0
		c2.8,0,5.7-0.1,8.4-0.3c0.1,0,0.3,0,0.4,0c1.7-0.1,3.4-0.3,5.1-0.5c55.3-6.9,98.1-54.1,98.1-111.2v-67.8
		c-7.9,3.1-15.7,5.3-23.3,6.8V242.3L332.5,242.3L332.5,242.3z"/>
	<g>
		<path class="st5" d="M298,233c-4.1,0-7.5-3.4-7.5-7.5v-2c0-4.1,3.4-7.5,7.5-7.5s7.5,3.4,7.5,7.5v2C305.5,229.6,302.2,233,298,233z
			"/>
		<path class="st5" d="M189.4,233c-4.1,0-7.5-3.4-7.5-7.5v-2c0-4.1,3.4-7.5,7.5-7.5s7.5,3.4,7.5,7.5v2
			C196.9,229.6,193.5,233,189.4,233z"/>
	</g>
</g>
</svg>
